<svg width="525" height="360" viewBox="0 0 525 360" fill="none" xmlns="http://www.w3.org/2000/svg">
<path d="M196.826 179.766C196.826 228.087 186.221 271.768 169.139 303.321C152.03 334.926 128.612 354.068 103.073 354.068C77.5345 354.068 54.1173 334.926 37.0076 303.321C19.9262 271.768 9.32046 228.087 9.32046 179.766C9.32046 131.446 19.9262 87.7648 37.0076 56.2116C54.1173 24.6062 77.5345 5.465 103.073 5.465C128.612 5.465 152.03 24.6062 169.139 56.2116C186.221 87.7648 196.826 131.446 196.826 179.766Z" stroke="#E85B11" stroke-width="2.64093"/>
<path d="M514.498 179.622C514.498 227.943 503.893 271.623 486.811 303.177C469.702 334.782 446.284 353.923 420.745 353.923C395.206 353.923 371.789 334.782 354.679 303.177C337.598 271.623 326.992 227.943 326.992 179.622C326.992 131.301 337.598 87.6202 354.679 56.0671C371.789 24.4617 395.206 5.32046 420.745 5.32046C446.284 5.32046 469.702 24.4617 486.811 56.0671C503.893 87.6202 514.498 131.301 514.498 179.622Z" stroke="#E85B11" stroke-width="2.64093"/>
<circle cx="141.5" cy="175.5" r="25.5" fill="black"/>
<circle cx="34.5" cy="298.5" r="25.5" fill="#E85B11"/>
<circle cx="90.5" cy="127.5" r="24.5" stroke="black" stroke-width="2"/>
<circle cx="446.5" cy="134.5" r="24.5" stroke="black" stroke-width="2"/>
<circle cx="391.5" cy="175.5" r="25.5" fill="black"/>
<circle cx="490.5" cy="301.5" r="25.5" fill="#E85B11"/>
</svg>
