<svg width="2100" height="360" viewBox="0 0 2100 360" fill="none" xmlns="http://www.w3.org/2000/svg">
<g clip-path="url(#clip0_333_529)">
<path d="M196.826 179.766C196.826 228.087 186.221 271.768 169.139 303.321C152.03 334.926 128.612 354.068 103.073 354.068C77.5345 354.068 54.1173 334.926 37.0076 303.321C19.9262 271.768 9.32046 228.087 9.32046 179.766C9.32046 131.446 19.9262 87.7648 37.0076 56.2116C54.1173 24.6062 77.5345 5.465 103.073 5.465C128.612 5.465 152.03 24.6062 169.139 56.2116C186.221 87.7648 196.826 131.446 196.826 179.766Z" stroke="#E85B11" stroke-width="2.64093"/>
<path d="M514.498 179.622C514.498 227.943 503.893 271.623 486.811 303.177C469.702 334.782 446.284 353.923 420.745 353.923C395.206 353.923 371.789 334.782 354.679 303.177C337.598 271.623 326.992 227.943 326.992 179.622C326.992 131.301 337.598 87.6202 354.679 56.0671C371.789 24.4617 395.206 5.32046 420.745 5.32046C446.284 5.32046 469.702 24.4617 486.811 56.0671C503.893 87.6202 514.498 131.301 514.498 179.622Z" stroke="#E85B11" stroke-width="2.64093"/>
<path d="M65 127.5C65 127.5 80.8462 134.2 91.5 134C101.397 133.814 116 127.5 116 127.5" stroke="black" stroke-width="2"/>
<path d="M421 128C421 128 436.846 134.7 447.5 134.5C457.397 134.314 472 128 472 128" stroke="black" stroke-width="2"/>
<path d="M116 173C116 173 131.846 179.7 142.5 179.5C152.397 179.314 167 173 167 173" stroke="black" stroke-width="2"/>
<path d="M366 173C366 173 381.846 179.7 392.5 179.5C402.397 179.314 417 173 417 173" stroke="black" stroke-width="2"/>
<path d="M465 299C465 299 480.846 305.7 491.5 305.5C501.397 305.314 516 299 516 299" stroke="#E85B11" stroke-width="2"/>
<path d="M9 299C9 299 24.8462 305.7 35.5 305.5C45.3971 305.314 60 299 60 299" stroke="#E85B11" stroke-width="2"/>
<path d="M721.826 179.766C721.826 228.087 711.221 271.768 694.139 303.321C677.03 334.926 653.612 354.068 628.073 354.068C602.535 354.068 579.117 334.926 562.008 303.321C544.926 271.768 534.32 228.087 534.32 179.766C534.32 131.446 544.926 87.7648 562.008 56.2116C579.117 24.6062 602.535 5.465 628.073 5.465C653.612 5.465 677.03 24.6062 694.139 56.2116C711.221 87.7648 721.826 131.446 721.826 179.766Z" stroke="#E85B11" stroke-width="2.64093"/>
<path d="M1039.5 179.622C1039.5 227.943 1028.89 271.623 1011.81 303.177C994.702 334.782 971.284 353.923 945.745 353.923C920.206 353.923 896.789 334.782 879.679 303.177C862.598 271.623 851.992 227.943 851.992 179.622C851.992 131.301 862.598 87.6202 879.679 56.0671C896.789 24.4617 920.206 5.32046 945.745 5.32046C971.284 5.32046 994.702 24.4617 1011.81 56.0671C1028.89 87.6202 1039.5 131.301 1039.5 179.622Z" stroke="#E85B11" stroke-width="2.64093"/>
<path d="M590 127.5C590 127.5 605.846 134.2 616.5 134C626.397 133.814 641 127.5 641 127.5" stroke="black" stroke-width="2"/>
<path d="M946 128C946 128 961.846 134.7 972.5 134.5C982.397 134.314 997 128 997 128" stroke="black" stroke-width="2"/>
<path d="M990 299C990 299 1005.85 305.7 1016.5 305.5C1026.4 305.314 1041 299 1041 299" stroke="#E85B11" stroke-width="2"/>
<path d="M534 299C534 299 549.846 305.7 560.5 305.5C570.397 305.314 585 299 585 299" stroke="#E85B11" stroke-width="2"/>
<circle cx="666.5" cy="175.5" r="25.5" fill="black"/>
<circle cx="916.5" cy="175.5" r="25.5" fill="black"/>
<path d="M1246.83 179.766C1246.83 228.087 1236.22 271.768 1219.14 303.321C1202.03 334.926 1178.61 354.068 1153.07 354.068C1127.53 354.068 1104.12 334.926 1087.01 303.321C1069.93 271.768 1059.32 228.087 1059.32 179.766C1059.32 131.446 1069.93 87.7648 1087.01 56.2116C1104.12 24.6062 1127.53 5.465 1153.07 5.465C1178.61 5.465 1202.03 24.6062 1219.14 56.2116C1236.22 87.7648 1246.83 131.446 1246.83 179.766Z" stroke="#E85B11" stroke-width="2.64093"/>
<path d="M1564.5 179.622C1564.5 227.943 1553.89 271.623 1536.81 303.177C1519.7 334.782 1496.28 353.923 1470.75 353.923C1445.21 353.923 1421.79 334.782 1404.68 303.177C1387.6 271.623 1376.99 227.943 1376.99 179.622C1376.99 131.301 1387.6 87.6202 1404.68 56.0671C1421.79 24.4617 1445.21 5.32046 1470.75 5.32046C1496.28 5.32046 1519.7 24.4617 1536.81 56.0671C1553.89 87.6202 1564.5 131.301 1564.5 179.622Z" stroke="#E85B11" stroke-width="2.64093"/>
<path d="M1515 299C1515 299 1530.85 305.7 1541.5 305.5C1551.4 305.314 1566 299 1566 299" stroke="#E85B11" stroke-width="2"/>
<path d="M1059 299C1059 299 1074.85 305.7 1085.5 305.5C1095.4 305.314 1110 299 1110 299" stroke="#E85B11" stroke-width="2"/>
<circle cx="1191.5" cy="175.5" r="25.5" fill="black"/>
<circle cx="1140.5" cy="127.5" r="24.5" stroke="black" stroke-width="2"/>
<circle cx="1496.5" cy="134.5" r="24.5" stroke="black" stroke-width="2"/>
<circle cx="1441.5" cy="175.5" r="25.5" fill="black"/>
<path d="M1771.83 179.766C1771.83 228.087 1761.22 271.768 1744.14 303.321C1727.03 334.926 1703.61 354.068 1678.07 354.068C1652.53 354.068 1629.12 334.926 1612.01 303.321C1594.93 271.768 1584.32 228.087 1584.32 179.766C1584.32 131.446 1594.93 87.7648 1612.01 56.2116C1629.12 24.6062 1652.53 5.465 1678.07 5.465C1703.61 5.465 1727.03 24.6062 1744.14 56.2116C1761.22 87.7648 1771.83 131.446 1771.83 179.766Z" stroke="#E85B11" stroke-width="2.64093"/>
<path d="M2089.5 179.622C2089.5 227.943 2078.89 271.623 2061.81 303.177C2044.7 334.782 2021.28 353.923 1995.75 353.923C1970.21 353.923 1946.79 334.782 1929.68 303.177C1912.6 271.623 1901.99 227.943 1901.99 179.622C1901.99 131.301 1912.6 87.6202 1929.68 56.0671C1946.79 24.4617 1970.21 5.32046 1995.75 5.32046C2021.28 5.32046 2044.7 24.4617 2061.81 56.0671C2078.89 87.6202 2089.5 131.301 2089.5 179.622Z" stroke="#E85B11" stroke-width="2.64093"/>
<circle cx="1716.5" cy="175.5" r="25.5" fill="black"/>
<circle cx="1609.5" cy="298.5" r="25.5" fill="#E85B11"/>
<circle cx="1665.5" cy="127.5" r="24.5" stroke="black" stroke-width="2"/>
<circle cx="2021.5" cy="134.5" r="24.5" stroke="black" stroke-width="2"/>
<circle cx="1966.5" cy="175.5" r="25.5" fill="black"/>
<circle cx="2065.5" cy="301.5" r="25.5" fill="#E85B11"/>
</g>
<defs>
<clipPath id="clip0_333_529">
<rect width="2100" height="360" fill="white"/>
</clipPath>
</defs>
</svg>
