<svg width="225" height="89" viewBox="0 0 225 89" fill="none" xmlns="http://www.w3.org/2000/svg">
<path fill-rule="evenodd" clip-rule="evenodd" d="M25.137 0.539538C23.3146 1.11729 21.5549 2.94997 20.9391 4.91139C20.5404 6.1815 20.4818 7.07062 20.5768 10.4063C20.7394 16.1207 21.1729 17.1213 26.2703 23.5517C27.864 25.5623 29.5413 27.9552 29.9976 28.8694C30.7773 30.4318 30.8278 30.7073 30.8396 33.466C30.8548 37.0443 30.5233 37.807 28.9557 37.8007C26.9836 37.7926 26.802 37.2868 26.802 31.8037V27.3382H23.3987H19.9954V32.1661C19.9954 38.8736 20.4682 40.7494 22.6235 42.5933C24.1526 43.9016 26.3305 44.4433 29.461 44.2944C35.8215 43.9917 38.3669 40.3433 37.9888 32.0714C37.7548 26.9501 37.1155 25.5853 31.7066 18.6594C27.7075 13.5386 27.492 13.1093 27.3674 10.0117C27.2444 6.94947 27.5792 6.14094 28.9678 6.14748C29.4324 6.14983 29.962 6.24639 30.1445 6.3623C30.7369 6.73805 30.9906 8.29991 30.9906 11.5712V14.7784H34.1321H37.2736V10.1844C37.2736 5.02783 37.0516 3.75013 35.9162 2.37353C34.5081 0.66592 33.407 0.282848 29.6817 0.204872C27.298 0.154895 26.0637 0.245692 25.137 0.539538ZM0.622803 22.1049V43.8229H3.8952H7.16759V34.4031V24.9832H9.39282H11.618V34.4031V43.8229H15.0229H18.4278L18.3607 22.1704L18.2937 0.51782L14.9559 0.444554L11.618 0.371289V9.15555V17.9395L9.45827 17.8634L7.29849 17.7875L7.22964 9.08725L7.16052 0.386989H3.89179H0.622803V22.1049ZM39.8044 0.561518C39.7083 0.657286 39.6297 10.4304 39.6297 22.2795V43.8229H47.3526H55.0754V40.5521V37.2813H50.7559H46.4363V31.0014V24.7216H49.7087H52.9811V21.4508V18.18H49.7087H46.4363V12.5543V6.92854H50.625H54.8136V3.65776V0.386989H47.3963C43.3166 0.386989 39.9002 0.465488 39.8044 0.561518ZM66.489 1.10656C66.4084 1.50219 66.1086 3.76897 65.8233 6.14355C65.1026 12.1374 63.646 24.0514 62.4043 34.1068C61.8291 38.765 61.3584 42.8568 61.3584 43.1996C61.3584 43.8197 61.3739 43.8229 64.3319 43.8229H67.3056L67.6158 40.6175C67.7865 38.8544 67.993 37.0294 68.0747 36.5618L68.2234 35.7114H70.4963H72.7694L73.0972 39.0476C73.2773 40.8823 73.4878 42.7077 73.5645 43.1033L73.7043 43.8229H76.9196C80.1072 43.8229 80.1341 43.8179 80.0412 43.2341C79.9899 42.9105 78.7707 33.5199 77.3322 22.3666C75.8936 11.2133 74.6509 1.70524 74.5705 1.23739L74.4242 0.386989H70.53H66.6359L66.489 1.10656ZM80.9928 22.0814V43.8229H84.3961H87.7994V34.1053V24.3879L89.3047 24.5646C90.1327 24.6616 90.9867 24.9173 91.2027 25.1326C91.5302 25.4594 91.6176 26.965 91.7299 34.2157C91.8037 38.996 91.9637 43.113 92.0852 43.365C92.2786 43.7664 92.7266 43.8229 95.7091 43.8229C98.8444 43.8229 99.0983 43.7868 98.9326 43.365C98.432 42.0899 98.2739 39.2925 98.2726 31.6912C98.271 23.7555 98.2451 23.3073 97.731 22.3933C97.4341 21.8653 96.86 21.2106 96.4555 20.939L95.7201 20.445L96.5092 19.7811C98.0975 18.4456 98.259 17.6467 98.2637 11.1151C98.2663 7.85299 98.1475 4.7939 97.9977 4.25461C97.626 2.91674 96.5508 1.71937 95.1382 1.07019C94.058 0.573816 93.37 0.516773 87.4721 0.432518L80.9928 0.340151V22.0814ZM99.58 3.65776V6.92854H102.329H105.078V25.3757V43.8229H108.35H111.622V25.3757V6.92854H114.371H117.12V3.65776V0.386989H108.35H99.58V3.65776ZM128.506 0.714067C128.443 0.89409 128.031 3.98484 127.591 7.5827C127.152 11.1805 126.504 16.4792 126.151 19.3575C125.799 22.2358 125.039 28.4764 124.464 33.2256C123.889 37.9747 123.355 42.3021 123.277 42.8417L123.135 43.8229H126.149C127.806 43.8229 129.173 43.7344 129.187 43.6266C129.2 43.5188 129.406 41.723 129.645 39.6363L130.079 35.8422L132.346 35.7668L134.614 35.6917L134.755 36.421C134.833 36.8224 135.036 38.6519 135.206 40.4867L135.516 43.8229H138.753C141.49 43.8229 141.99 43.7609 141.99 43.421C141.99 43.1999 141.406 38.5781 140.692 33.1507C139.977 27.7231 138.729 18.2195 137.918 12.0315C137.107 5.84343 136.389 0.692087 136.322 0.583759C136.255 0.475431 134.495 0.386989 132.411 0.386989C129.617 0.386989 128.592 0.472814 128.506 0.714067ZM143.037 22.1049V43.8229H146.045H149.053L149.121 32.0546L149.189 20.2864L150.544 25.5785C151.289 28.4892 152.631 33.7847 153.526 37.3467L155.154 43.8229H157.866H160.577V22.1049V0.386989H157.567H154.556L154.533 11.573L154.51 22.7591L153.652 19.3575C153.179 17.4866 151.941 12.453 150.9 8.17143L149.006 0.386989H146.022H143.037V22.1049ZM162.934 22.0974V43.8561L169.413 43.774L175.892 43.6921L177.156 42.9495C178.656 42.0682 179.805 40.3964 180.219 38.4907C180.42 37.5642 180.484 32.2252 180.426 21.1891L180.343 5.22774L179.691 3.95213C178.946 2.49363 177.747 1.40616 176.34 0.912668C175.691 0.685022 173.305 0.533258 169.151 0.455283L162.934 0.338843V22.0974ZM91.1786 7.0544C91.5296 7.40555 91.5954 8.23528 91.5954 12.3256C91.5954 17.1116 91.5867 17.187 90.9773 17.68C90.5574 18.0199 89.9492 18.18 89.0793 18.18H87.7994V12.256V6.33195L89.2806 6.48476C90.1042 6.5698 90.9472 6.82283 91.1786 7.0544ZM172.316 6.69147C172.935 6.90708 173.206 7.21271 173.416 7.93437C173.603 8.57361 173.669 13.4256 173.616 22.5558C173.538 35.9317 173.525 36.2318 172.999 36.757C172.661 37.095 171.958 37.3533 171.101 37.4548L169.74 37.616V22.0105V6.40522H170.617C171.1 6.40522 171.864 6.53395 172.316 6.69147ZM71.1625 21.1891C71.5306 24.6431 71.8955 27.8518 71.9736 28.3194L72.1157 29.1698H70.4489H68.7823L68.9687 27.5344C69.0711 26.6351 69.4258 23.3164 69.7564 20.1597C70.0874 17.0031 70.3887 14.5303 70.4258 14.6648C70.4633 14.7993 70.7947 17.7352 71.1625 21.1891ZM133.858 28.4502C133.874 29.1586 133.85 29.1698 132.274 29.1698H130.674L130.825 28.0577C130.909 27.446 131.224 24.5319 131.526 21.5816C131.828 18.6314 132.146 15.9232 132.233 15.5634C132.37 14.9995 133.811 26.4323 133.858 28.4502ZM43.8184 44.2371C39.7831 44.9509 37.8784 46.8851 37.2519 50.905C36.9401 52.907 37.0825 56.5818 37.5537 58.6866C38.0223 60.7807 39.4258 63.1435 42.6657 67.294C44.4407 69.5678 46.2214 72.017 46.6227 72.7365C47.318 73.9828 47.3526 74.2081 47.3526 77.4839C47.3526 80.4985 47.2911 80.9909 46.8539 81.4742C46.1258 82.2791 44.7883 82.2118 44.0993 81.3361C43.5977 80.6987 43.5566 80.3035 43.5566 76.1028V71.5591H40.1311H36.7058L36.7951 77.2502C36.878 82.5272 36.9283 83.0366 37.4859 84.2497C38.5504 86.5659 40.0298 87.7036 42.7186 88.2733C45.2344 88.8063 48.3369 88.5326 50.2917 87.6055C53.551 86.0596 55.1027 81.8128 54.6841 75.5829C54.3765 71.0051 53.7463 69.7191 48.4369 62.8334C46.9005 60.8406 45.3533 58.7159 44.9993 58.1117C43.7831 56.0378 43.6281 51.2719 44.7499 50.4518C45.3693 49.9992 46.2059 50.0078 46.8445 50.4736C47.2981 50.8046 47.3665 51.2735 47.4835 54.8564L47.6144 58.8685L50.8213 58.942L54.0283 59.0155L54.022 54.4937C54.0183 52.0066 53.8942 49.4421 53.7461 48.7945C53.273 46.726 51.8263 45.182 49.8129 44.5966C48.8011 44.3025 44.8041 44.0626 43.8184 44.2371ZM71.5474 44.3316C68.3857 44.9122 66.2513 47.1052 65.5468 50.4968C65.3597 51.398 65.2908 57.1258 65.3411 67.6572C65.4225 84.7863 65.3369 83.775 66.9048 86.1206C67.8883 87.5919 69.8504 88.5671 71.8277 88.5671C73.7794 88.5671 75.7476 87.4189 77.0877 85.4988L78.0419 84.1314L78.5356 86.0222L79.0294 87.9129L80.9274 87.9899L82.8253 88.0668V74.8414V61.6159H78.244H73.6626V65.0175V68.4191H75.1025H76.5423V74.193C76.5423 80.0393 76.4465 80.7159 75.518 81.4284C74.8739 81.9227 73.4668 81.8298 72.8919 81.2552C72.6118 80.9752 72.3115 80.3572 72.2244 79.8815C72.1374 79.4058 72.1013 72.8535 72.1445 65.3213L72.2228 51.6262L72.8409 51.1261C73.7325 50.4047 74.8211 50.483 75.4761 51.3156C75.9585 51.9286 76.0188 52.3635 76.0188 55.2405V58.476H79.3207H82.623L82.5101 53.9623C82.4227 50.4657 82.2963 49.216 81.9486 48.4161C80.7088 45.5611 78.8333 44.4182 75.0792 44.229C73.7962 44.1644 72.2068 44.2104 71.5474 44.3316ZM116.984 44.3266C114.404 44.7377 112.643 46.0656 111.578 48.402C110.693 50.344 110.563 55.7099 111.328 58.7329C112.029 61.5044 112.757 62.7314 116.608 67.6341C120.602 72.7198 121.095 73.7188 121.244 77.0388C121.381 80.1002 121.002 81.4988 119.934 81.8738C118.98 82.2087 117.879 81.8092 117.457 80.9744C117.232 80.5309 117.127 78.934 117.124 75.9419L117.12 71.5591H113.717H110.313V76.09C110.313 81.2395 110.588 83.1824 111.57 84.9949C112.717 87.1117 114.746 88.2 118.068 88.4808C123.404 88.9316 126.839 86.6962 127.984 82.0282C128.351 80.5322 128.417 79.4186 128.316 76.448C128.13 70.9706 127.721 70.0597 122.369 63.1859C118.15 57.7663 117.775 56.9892 117.775 53.6781C117.775 51.2889 117.819 51.0683 118.393 50.6036C119.174 49.9701 119.777 49.9698 120.56 50.6023C121.152 51.0814 121.181 51.2653 121.262 55.0587L121.347 59.015L124.535 58.9417L127.723 58.8685L127.707 54.0277C127.692 49.5839 127.642 49.0765 127.097 47.8389C126.387 46.2297 125.756 45.5936 124.179 44.8962C122.819 44.2949 119.053 43.9969 116.984 44.3266ZM136.493 44.2481C133.588 44.8107 131.923 46.0546 130.756 48.5328L130.079 49.9719V66.3522V82.7326L130.997 84.5378C132.557 87.6037 135.022 88.739 139.642 88.5182C143.465 88.3355 145.494 86.9953 146.776 83.8072C147.284 82.5426 147.343 81.8144 147.434 75.6802L147.533 68.9424H144.26H140.987L140.899 74.8529L140.812 80.7633L140.078 81.3944C138.734 82.5489 137.217 81.9538 136.888 80.1432C136.802 79.6674 136.766 73.0791 136.808 65.5026C136.882 52.3829 136.909 51.7013 137.384 51.1766C137.921 50.5837 139.081 50.4521 139.902 50.8909C140.687 51.3109 140.94 52.8228 140.941 57.1022L140.943 61.0926H144.241H147.539L147.439 55.4014C147.345 50.1111 147.295 49.6127 146.722 48.3266C145.986 46.6747 144.289 45.0919 142.764 44.6351C141.598 44.2863 137.577 44.038 136.493 44.2481ZM175.74 44.3316C172.269 44.969 170.153 47.3687 169.496 51.4127C169.14 53.6088 169.133 78.6234 169.489 81.1097C169.964 84.4407 171.918 87.2046 174.367 88.0124C176.155 88.6022 179.916 88.6901 181.662 88.183C184.574 87.3368 186.015 85.8427 186.972 82.6797C187.494 80.9538 187.751 55.4886 187.282 51.9655C186.773 48.144 185.447 46.0536 182.79 44.8813C181.397 44.2672 177.673 43.9767 175.74 44.3316ZM195.882 44.3344C192.494 44.9533 190.482 47.0738 189.647 50.9069C189.423 51.9328 189.361 56.4303 189.421 67.1108C189.499 80.7233 189.544 81.9968 189.989 83.1813C191.501 87.2075 194.352 88.8201 199.398 88.5056C202.955 88.2837 205.023 87.0756 206.357 84.4386C207.36 82.4568 207.438 81.1385 207.438 66.1544C207.438 53.8304 207.376 51.3776 207.03 50.0418C206.335 47.3645 204.954 45.6762 202.798 44.8698C201.203 44.2735 197.701 44.0024 195.882 44.3344ZM0.622803 66.3298V88.0854L6.84035 87.999C12.738 87.9174 13.1218 87.8815 14.3017 87.3007C15.7627 86.5816 16.9191 85.2725 17.5623 83.6102C17.9793 82.5316 18.0319 80.9737 18.1131 67.2416C18.177 56.4413 18.1144 51.5537 17.8958 50.2909C17.4906 47.9496 16.391 46.3008 14.6368 45.4039C13.3652 44.7536 13.1932 44.7369 6.97936 44.6565L0.622803 44.5741V66.3298ZM20.2572 66.3258V88.0438H27.98H35.7029V84.6422V81.2406H31.3833H27.0637V75.0915V68.9424H30.3361H33.6085V65.5408V62.1392H30.3361H27.0637V56.6443V51.1494H31.2524H35.4411V47.8786V44.6079H27.8491H20.2572V66.3258ZM56.3844 66.3258V88.0438H59.7877H63.191V66.3258V44.6079H59.7877H56.3844V66.3258ZM84.9836 66.2604L85.0506 87.9129L88.1266 87.9867L91.2027 88.0603L91.2265 76.2119L91.2503 64.3634L93.8261 74.5682C95.2426 80.1808 96.5998 85.5091 96.8419 86.4084L97.282 88.0438H100.002H102.721V66.3258V44.6079H99.7109H96.7003L96.6731 55.7939C96.6495 65.471 96.5995 66.8211 96.3029 65.8025C96.1141 65.1549 94.8657 60.121 93.5284 54.6164L91.0972 44.6079H88.007H84.9165L84.9836 66.2604ZM149.32 66.3258V88.0438H152.724H156.127V78.4931V68.9424H158.352H160.577V78.4931V88.0438H163.85H167.122V66.3258V44.6079H163.85H160.577V53.2427V61.8776H158.352H156.127V53.2427V44.6079H152.724H149.32V66.3258ZM209.532 66.33V88.0519L216.928 87.9825L224.324 87.9129L224.397 84.5768L224.47 81.2406H220.405H216.339V62.9242V44.6079H212.936H209.532V66.33ZM10.6751 51.4956C11.218 52.2246 11.2254 52.4198 11.2254 66.0642C11.2254 79.7085 11.218 79.9037 10.6751 80.6327C10.2018 81.268 9.91797 81.3824 8.64619 81.4499L7.16759 81.5284V66.0642V50.5999L8.64619 50.6784C9.91797 50.7459 10.2018 50.8603 10.6751 51.4956ZM179.832 51.3185L180.474 52.0108V66.0854C180.474 74.3633 180.371 80.4297 180.224 80.8151C179.682 82.2419 177.545 82.3741 176.638 81.0372C176.188 80.3742 176.148 79.4723 176.068 68.0266C175.969 53.8453 176.059 52.1367 176.953 51.2426C177.802 50.3943 179.004 50.4259 179.832 51.3185ZM199.574 50.8823C200.567 51.4132 200.632 52.3732 200.628 66.4302C200.623 81.0673 200.631 80.9847 199.271 81.7474C198.289 82.2982 197.226 81.8811 196.636 80.7144C196.21 79.8713 196.18 78.7378 196.243 65.8888L196.312 51.9763L196.947 51.3012C197.615 50.5908 198.704 50.417 199.574 50.8823Z" fill="white"/>
</svg>
