<svg width="1433" height="29" viewBox="0 0 1433 29" fill="none" xmlns="http://www.w3.org/2000/svg">
<path d="M841.939 28C835.509 27.98 835.59 1.97889 829.16 1.95893C822.729 1.93896 822.648 27.9401 816.218 27.9201C809.788 27.9002 809.869 1.89903 803.453 1.87912C797.023 1.85915 796.942 27.8603 790.527 27.8404C784.097 27.8204 784.177 1.81927 777.762 1.79936C771.332 1.77939 771.251 27.7805 764.821 27.7606C758.391 27.7406 758.471 1.73946 752.041 1.7195C745.611 1.69954 745.53 27.7007 739.1 27.6807C732.669 27.6608 732.75 1.65961 726.319 1.63964C719.889 1.61968 719.809 27.6208 713.378 27.6009" stroke="white" stroke-width="2" stroke-miterlimit="10" stroke-linecap="round"/>
<path d="M1431.94 28C1425.51 27.98 1425.59 1.97889 1419.16 1.95893C1412.73 1.93896 1412.65 27.9401 1406.22 27.9201C1399.79 27.9002 1399.87 1.89903 1393.45 1.87912C1387.02 1.85915 1386.94 27.8603 1380.53 27.8404C1374.1 27.8204 1374.18 1.81927 1367.76 1.79936C1361.33 1.77939 1361.25 27.7805 1354.82 27.7606C1348.39 27.7406 1348.47 1.73946 1342.04 1.7195C1335.61 1.69954 1335.53 27.7007 1329.1 27.6807C1322.67 27.6608 1322.75 1.65961 1316.32 1.63964C1309.89 1.61968 1309.81 27.6208 1303.38 27.6009" stroke="white" stroke-width="2" stroke-miterlimit="10" stroke-linecap="round"/>
<path d="M615.94 28C609.509 27.98 609.59 1.97889 603.16 1.95893C596.729 1.93896 596.649 27.9401 590.218 27.9201C583.788 27.9002 583.869 1.89903 577.454 1.87912C571.023 1.85915 570.942 27.8603 564.527 27.8404C558.097 27.8204 558.178 1.81927 551.762 1.79936C545.332 1.77939 545.251 27.7805 538.821 27.7606C532.391 27.7406 532.472 1.73946 526.041 1.7195C519.611 1.69954 519.53 27.7007 513.1 27.6807C506.669 27.6608 506.75 1.65961 500.32 1.63964C493.89 1.61968 493.809 27.6208 487.378 27.6009" stroke="white" stroke-width="2" stroke-miterlimit="10" stroke-linecap="round"/>
<path d="M1256.01 15.5L1242.52 15.4937L1254.98 20.6656L1242.52 15.4986L1252.05 25.0433L1242.52 15.5023L1247.67 27.9669L1242.51 15.5044L1242.5 28.9911L1242.51 15.5044L1237.34 27.9601L1242.5 15.5023L1232.96 25.0308L1242.5 15.4986L1230.04 20.6492L1242.5 15.4937L1229.01 15.4822L1242.5 15.4885L1230.04 10.3167L1242.5 15.4836L1232.97 5.93891L1242.5 15.4799L1237.35 3.01535L1242.51 15.4778L1242.52 1.99113L1242.51 15.4778L1247.69 3.02214L1242.52 15.4799L1252.06 5.95146L1242.52 15.4836L1254.99 10.3331L1242.52 15.4885L1256.01 15.5Z" fill="white" stroke="white" stroke-width="2"/>
<path d="M1098.01 18.7395C1098.01 10.5991 1095.56 3.99838 1092.53 3.99639C1089.5 3.9944 1087.04 10.5919 1087.03 18.7323C1087.03 23.2944 1088.07 26.9935 1089.35 26.9943C1090.63 26.9951 1091.67 23.2975 1091.68 18.7354C1091.68 10.5949 1089.23 3.99422 1086.2 3.99223C1083.17 3.99024 1080.71 10.5877 1080.7 18.7281C1080.7 23.2903 1081.74 26.9893 1083.02 26.9901C1084.3 26.991 1085.34 23.2933 1085.35 18.7312C1085.35 10.5907 1082.88 3.99005 1079.84 3.98805C1076.79 3.98604 1074.31 10.5835 1074.3 18.7239C1074.3 23.2861 1075.34 26.9851 1076.62 26.9859C1077.9 26.9868 1078.95 23.2891 1078.95 18.727C1078.96 10.5865 1076.5 3.98586 1073.47 3.98386C1070.44 3.98187 1067.98 10.5793 1067.97 18.7198C1067.97 23.2819 1069.01 26.9809 1070.29 26.9818C1071.57 26.9826 1072.62 23.2849 1072.62 18.7228C1072.63 10.5824 1070.17 3.98169 1067.14 3.9797C1064.11 3.97771 1061.65 10.5752 1061.64 18.7156C1061.64 23.2777 1062.68 26.9768 1063.96 26.9776C1065.24 26.9785 1066.29 23.2808 1066.29 18.7187C1066.3 10.5782 1063.84 3.97753 1060.81 3.97554C1057.78 3.97355 1055.32 10.571 1055.31 18.7115C1055.31 23.2736 1056.35 26.9726 1057.63 26.9735C1058.91 26.9743 1059.96 23.2766 1059.96 18.7145C1059.96 10.5741 1057.5 3.97336 1054.45 3.97136C1051.4 3.96935 1048.92 10.5668 1048.92 18.7072" stroke="white" stroke-width="2" stroke-linecap="round"/>
<path d="M94.0081 18.7395C94.0135 10.5991 91.5606 3.99838 88.5294 3.99639C85.4983 3.9944 83.0367 10.5919 83.0314 18.7323C83.0284 23.2944 84.0661 26.9935 85.3492 26.9943C86.6324 26.9951 87.675 23.2975 87.678 18.7354C87.6833 10.5949 85.2304 3.99422 82.1993 3.99223C79.1681 3.99024 76.7065 10.5877 76.7011 18.7281C76.6981 23.2903 77.7359 26.9893 79.0191 26.9901C80.3022 26.991 81.3448 23.2933 81.3478 18.7312C81.3532 10.5907 78.8852 3.99005 75.8355 3.98805C72.7857 3.98604 70.309 10.5835 70.3036 18.7239C70.3006 23.2861 71.3384 26.9851 72.6216 26.9859C73.9048 26.9868 74.9472 23.2891 74.9502 18.727C74.9556 10.5865 72.5028 3.98586 69.4716 3.98386C66.4404 3.98187 63.979 10.5793 63.9736 18.7198C63.9706 23.2819 65.0082 26.9809 66.2914 26.9818C67.5745 26.9826 68.6172 23.2849 68.6202 18.7228C68.6256 10.5824 66.1726 3.98169 63.1414 3.9797C60.1102 3.97771 57.6488 10.5752 57.6434 18.7156C57.6404 23.2777 58.6782 26.9768 59.9612 26.9776C61.2443 26.9785 62.287 23.2808 62.29 18.7187C62.2953 10.5782 59.8423 3.97753 56.8114 3.97554C53.7802 3.97355 51.3185 10.571 51.3132 18.7115C51.3102 23.2736 52.348 26.9726 53.6311 26.9735C54.9141 26.9743 55.9568 23.2766 55.9598 18.7145C55.9651 10.5741 53.4972 3.97336 50.4475 3.97136C47.3978 3.96935 44.9211 10.5668 44.9157 18.7072" stroke="white" stroke-width="2" stroke-linecap="round"/>
<path d="M335.008 18.7395C335.013 10.5991 332.561 3.99838 329.529 3.99639C326.498 3.9944 324.037 10.5919 324.031 18.7323C324.028 23.2944 325.066 26.9935 326.349 26.9943C327.632 26.9951 328.675 23.2975 328.678 18.7354C328.683 10.5949 326.23 3.99422 323.199 3.99223C320.168 3.99024 317.706 10.5877 317.701 18.7281C317.698 23.2903 318.736 26.9893 320.019 26.9901C321.302 26.991 322.345 23.2933 322.348 18.7312C322.353 10.5907 319.885 3.99005 316.835 3.98805C313.786 3.98604 311.309 10.5835 311.304 18.7239C311.301 23.2861 312.338 26.9851 313.622 26.9859C314.905 26.9868 315.947 23.2891 315.95 18.727C315.956 10.5865 313.503 3.98586 310.472 3.98386C307.44 3.98187 304.979 10.5793 304.974 18.7198C304.971 23.2819 306.008 26.9809 307.291 26.9818C308.575 26.9826 309.617 23.2849 309.62 18.7228C309.626 10.5824 307.173 3.98169 304.141 3.9797C301.11 3.97771 298.649 10.5752 298.643 18.7156C298.64 23.2777 299.678 26.9768 300.961 26.9776C302.244 26.9785 303.287 23.2808 303.29 18.7187C303.295 10.5782 300.842 3.97753 297.811 3.97554C294.78 3.97355 292.319 10.571 292.313 18.7115C292.31 23.2736 293.348 26.9726 294.631 26.9735C295.914 26.9743 296.957 23.2766 296.96 18.7145C296.965 10.5741 294.497 3.97336 291.448 3.97136C288.398 3.96935 285.921 10.5668 285.916 18.7072" stroke="white" stroke-width="2" stroke-linecap="round"/>
<path d="M1153.01 15.5L1139.52 15.4937L1151.98 20.6656L1139.52 15.4986L1149.05 25.0433L1139.52 15.5023L1144.67 27.9669L1139.51 15.5044L1139.5 28.9911L1139.51 15.5044L1134.34 27.9601L1139.5 15.5023L1129.96 25.0308L1139.5 15.4986L1127.04 20.6492L1139.5 15.4937L1126.01 15.4822L1139.5 15.4885L1127.04 10.3167L1139.5 15.4836L1129.97 5.93891L1139.5 15.4799L1134.35 3.01535L1139.51 15.4778L1139.52 1.99113L1139.51 15.4778L1144.69 3.02214L1139.52 15.4799L1149.06 5.95146L1139.52 15.4836L1151.99 10.3331L1139.52 15.4885L1153.01 15.5Z" fill="white" stroke="white" stroke-width="2"/>
<path d="M390.013 15.5L376.526 15.4937L388.982 20.6656L376.524 15.4986L386.053 25.0433L376.52 15.5023L381.671 27.9669L376.515 15.5044L376.504 28.9911L376.51 15.5044L371.338 27.9601L376.505 15.5023L366.961 25.0308L376.502 15.4986L364.037 20.6492L376.5 15.4937L363.013 15.4822L376.5 15.4885L364.044 10.3167L376.502 15.4836L366.973 5.93891L376.505 15.4799L371.355 3.01535L376.51 15.4778L376.522 1.99113L376.515 15.4778L381.687 3.02214L376.52 15.4799L386.065 5.95146L376.524 15.4836L388.989 10.3331L376.526 15.4885L390.013 15.5Z" fill="white" stroke="white" stroke-width="2"/>
<path d="M676.013 15.5L662.526 15.4937L674.982 20.6656L662.524 15.4986L672.053 25.0433L662.52 15.5023L667.671 27.9669L662.515 15.5044L662.504 28.9911L662.51 15.5044L657.338 27.9601L662.505 15.5023L652.961 25.0308L662.502 15.4986L650.037 20.6492L662.5 15.4937L649.013 15.4822L662.5 15.4885L650.044 10.3167L662.502 15.4836L652.973 5.93891L662.505 15.4799L657.355 3.01535L662.51 15.4778L662.522 1.99113L662.515 15.4778L667.687 3.02214L662.52 15.4799L672.065 5.95146L662.524 15.4836L674.989 10.3331L662.526 15.4885L676.013 15.5Z" fill="white" stroke="white" stroke-width="2"/>
<path d="M902.013 15.5L888.526 15.4937L900.982 20.6656L888.524 15.4986L898.052 25.0433L888.52 15.5023L893.671 27.9669L888.515 15.5044L888.504 28.9911L888.51 15.5044L883.338 27.9601L888.505 15.5023L878.96 25.0308L888.501 15.4986L876.037 20.6492L888.499 15.4937L875.013 15.4822L888.499 15.4885L876.044 10.3167L888.501 15.4836L878.973 5.93891L888.505 15.4799L883.355 3.01535L888.51 15.4778L888.521 1.99113L888.515 15.4778L893.687 3.02214L888.52 15.4799L898.065 5.95146L888.524 15.4836L900.988 10.3331L888.526 15.4885L902.013 15.5Z" fill="white" stroke="white" stroke-width="2"/>
<path d="M253.009 15.5L239.522 15.4937L251.978 20.6656L239.52 15.4986L249.049 25.0433L239.516 15.5023L244.667 27.9669L239.512 15.5044L239.5 28.9911L239.506 15.5044L234.334 27.9601L239.501 15.5023L229.957 25.0308L239.498 15.4986L227.033 20.6492L239.496 15.4937L226.009 15.4822L239.496 15.4885L227.04 10.3167L239.498 15.4836L229.969 5.93891L239.501 15.4799L234.351 3.01535L239.506 15.4778L239.518 1.99113L239.512 15.4778L244.683 3.02214L239.516 15.4799L249.061 5.95146L239.52 15.4836L251.985 10.3331L239.522 15.4885L253.009 15.5Z" fill="white" stroke="white" stroke-width="2"/>
<path d="M27.0089 15.5L13.5222 15.4937L25.9779 20.6656L13.5202 15.4986L23.0486 25.0433L13.5165 15.5023L18.667 27.9669L13.5116 15.5044L13.5001 28.9911L13.5063 15.5044L8.3345 27.9601L13.5014 15.5023L3.95676 25.0308L13.4977 15.4986L1.03319 20.6492L13.4957 15.4937L0.00895381 15.4822L13.4957 15.4885L1.03998 10.3167L13.4977 15.4836L3.96931 5.93891L13.5014 15.4799L8.3509 3.01535L13.5063 15.4778L13.5178 1.99113L13.5116 15.4778L18.6834 3.02214L13.5165 15.4799L23.0612 5.95146L13.5202 15.4836L25.9847 10.3331L13.5222 15.4885L27.0089 15.5Z" fill="white" stroke="white" stroke-width="2"/>
</svg>
