<svg width="499" height="395" viewBox="0 0 499 395" fill="none" xmlns="http://www.w3.org/2000/svg">
<circle cx="21.6298" cy="21.6713" r="21.6298" fill="#E85B11"/>
<circle cx="203.63" cy="21.6713" r="21.6298" fill="#E85B11"/>
<circle cx="21.63" cy="372.671" r="21.6298" transform="rotate(180 21.63 372.671)" fill="black"/>
<circle cx="203.63" cy="372.671" r="21.6298" transform="rotate(180 203.63 372.671)" fill="black"/>
<circle cx="385.63" cy="372.671" r="21.6298" transform="rotate(180 385.63 372.671)" fill="black"/>
<circle cx="160.63" cy="87.6713" r="21.6298" fill="black"/>
<circle cx="342.63" cy="87.6713" r="21.6298" fill="black"/>
<circle cx="64.63" cy="306.671" r="21.6298" transform="rotate(180 64.63 306.671)" fill="black"/>
<circle cx="246.63" cy="306.671" r="21.6298" transform="rotate(180 246.63 306.671)" fill="black"/>
<circle cx="428.63" cy="306.671" r="21.6298" transform="rotate(180 428.63 306.671)" fill="black"/>
<circle cx="112.63" cy="372.671" r="21.6298" transform="rotate(180 112.63 372.671)" fill="black"/>
<circle cx="69.6298" cy="87.6713" r="21.6298" fill="black"/>
<circle cx="251.63" cy="87.6713" r="21.6298" fill="black"/>
<circle cx="433.63" cy="87.6713" r="21.6298" fill="black"/>
<circle cx="155.63" cy="306.671" r="21.6298" transform="rotate(180 155.63 306.671)" fill="black"/>
<circle cx="337.63" cy="306.671" r="21.6298" transform="rotate(180 337.63 306.671)" fill="black"/>
<circle cx="21.6298" cy="153.671" r="21.6298" fill="black"/>
<circle cx="385.63" cy="153.671" r="21.6298" fill="black"/>
<circle cx="21.63" cy="240.671" r="21.6298" transform="rotate(180 21.63 240.671)" fill="black"/>
<circle cx="203.63" cy="240.671" r="21.6298" transform="rotate(180 203.63 240.671)" fill="black"/>
<circle cx="385.63" cy="240.671" r="21.6298" transform="rotate(180 385.63 240.671)" fill="black"/>
<circle cx="112.63" cy="21.6713" r="21.6298" fill="#E85B11"/>
<circle cx="294.63" cy="372.671" r="21.6298" transform="rotate(180 294.63 372.671)" fill="black"/>
<circle cx="476.63" cy="372.671" r="21.6298" transform="rotate(180 476.63 372.671)" fill="black"/>
</svg>
