<svg width="272" height="579" viewBox="0 0 272 579" fill="none" xmlns="http://www.w3.org/2000/svg">
<path d="M174.029 1.0415C78.4673 1.0415 1 29.8873 1 65.4703C1 101.053 78.4673 129.899 174.029 129.899C227.584 129.899 271 117.689 271 102.626C271 87.5629 227.584 75.3521 174.029 75.3521C78.4673 75.3521 1 104.198 1 139.781C1 175.364 78.4673 204.211 174.029 204.211C227.584 204.211 271 192 271 176.936C271 161.873 227.584 149.663 174.029 149.663C78.4673 149.663 1 178.686 1 214.487C1 250.288 78.4673 279.312 174.029 279.312C227.584 279.312 271 267.1 271 252.037C271 236.974 227.584 224.765 174.029 224.765C78.4673 224.765 1 253.609 1 289.193C1 324.776 78.4673 353.621 174.029 353.621C227.584 353.621 271 341.412 271 326.348C271 311.285 227.584 299.074 174.029 299.074C78.4673 299.074 1 327.921 1 363.504C1 399.087 78.4673 427.932 174.029 427.932C227.584 427.932 271 415.721 271 400.66C271 385.596 227.584 373.385 174.029 373.385C78.4673 373.385 1 402.232 1 437.813C1 473.396 78.4673 502.243 174.029 502.243C227.584 502.243 271 490.032 271 474.969C271 459.908 227.584 447.696 174.029 447.696C78.4673 447.696 1 476.718 1 512.519C1 548.32 78.4673 577.344 174.029 577.344" stroke="#E85B11" stroke-width="2" stroke-linecap="round"/>
</svg>
