<svg width="272" height="365" viewBox="0 0 272 365" fill="none" xmlns="http://www.w3.org/2000/svg">
<path d="M174.029 1C78.4673 1 1 29.8458 1 65.4288C1 101.012 78.4673 129.858 174.029 129.858C227.584 129.858 271 117.647 271 102.584C271 87.5214 227.584 75.3106 174.029 75.3106C78.4673 75.3106 1 104.156 1 139.739C1 175.323 78.4673 204.169 174.029 204.169C227.584 204.169 271 191.958 271 176.895C271 161.832 227.584 149.621 174.029 149.621C78.4673 149.621 1 178.644 1 214.445C1 250.246 78.4673 279.27 174.029 279.27C227.584 279.27 271 267.059 271 251.996C271 236.932 227.584 224.723 174.029 224.723C78.4673 224.723 1 253.568 1 289.151C1 324.735 78.4673 353.579 174.029 353.579C227.584 353.579 271 341.37 271 326.307C271 311.244 227.584 299.032 174.029 299.032C78.4673 299.032 1 327.879 1 363.463" stroke="black" stroke-width="2" stroke-linecap="round"/>
</svg>
