<svg width="111" height="233" viewBox="0 0 111 233" fill="none" xmlns="http://www.w3.org/2000/svg">
<path d="M70.5896 1.60742C32.5606 1.60742 1.73242 13.0866 1.73242 27.2469C1.73242 41.4072 32.5606 52.8865 70.5896 52.8865C91.9019 52.8865 109.179 48.0272 109.179 42.033C109.179 36.0387 91.9019 31.1794 70.5896 31.1794C32.5606 31.1794 1.73242 42.6586 1.73242 56.8189C1.73242 70.9793 32.5606 82.4589 70.5896 82.4589C91.9019 82.4589 109.179 77.5994 109.179 71.6049C109.179 65.6107 91.9019 60.7514 70.5896 60.7514C32.5606 60.7514 1.73242 72.3011 1.73242 86.5482C1.73242 100.795 32.5606 112.345 70.5896 112.345C91.9019 112.345 109.179 107.486 109.179 101.491C109.179 95.4969 91.9019 90.6384 70.5896 90.6384C32.5606 90.6384 1.73242 102.117 1.73242 116.278C1.73242 130.438 32.5606 141.917 70.5896 141.917C91.9019 141.917 109.179 137.058 109.179 131.064C109.179 125.069 91.9019 120.21 70.5896 120.21C32.5606 120.21 1.73242 131.689 1.73242 145.85C1.73242 160.01 32.5606 171.489 70.5896 171.489C91.9019 171.489 109.179 166.629 109.179 160.636C109.179 154.641 91.9019 149.782 70.5896 149.782C32.5606 149.782 1.73242 161.262 1.73242 175.421C1.73242 189.582 32.5606 201.061 70.5896 201.061C91.9019 201.061 109.179 196.202 109.179 190.207C109.179 184.214 91.9019 179.354 70.5896 179.354C32.5606 179.354 1.73242 190.903 1.73242 205.15C1.73242 219.398 32.5606 230.948 70.5896 230.948" stroke="#E85B11" stroke-width="2.55826" stroke-linecap="round"/>
</svg>
