<svg width="219" height="466" viewBox="0 0 219 466" fill="none" xmlns="http://www.w3.org/2000/svg">
<path d="M140.011 1.0415C63.237 1.0415 1 24.2161 1 52.8034C1 81.3907 63.237 104.566 140.011 104.566C183.037 104.566 217.917 94.7554 217.917 82.654C217.917 70.5525 183.037 60.7424 140.011 60.7424C63.237 60.7424 1 83.917 1 112.504C1 141.092 63.237 164.267 140.011 164.267C183.037 164.267 217.917 154.457 217.917 142.355C217.917 130.253 183.037 120.443 140.011 120.443C63.237 120.443 1 143.76 1 172.523C1 201.285 63.237 224.603 140.011 224.603C183.037 224.603 217.917 214.792 217.917 202.691C217.917 190.589 183.037 180.78 140.011 180.78C63.237 180.78 1 203.954 1 232.541C1 261.129 63.237 284.303 140.011 284.303C183.037 284.303 217.917 274.494 217.917 262.392C217.917 250.29 183.037 240.48 140.011 240.48C63.237 240.48 1 263.655 1 292.243C1 320.83 63.237 344.004 140.011 344.004C183.037 344.004 217.917 334.194 217.917 322.094C217.917 309.992 183.037 300.181 140.011 300.181C63.237 300.181 1 323.357 1 351.942C1 380.53 63.237 403.705 140.011 403.705C183.037 403.705 217.917 393.895 217.917 381.793C217.917 369.693 183.037 359.883 140.011 359.883C63.237 359.883 1 383.199 1 411.961C1 440.724 63.237 464.041 140.011 464.041" stroke="#E85B11" stroke-width="2" stroke-linecap="round"/>
</svg>
