<svg width="88" height="88" viewBox="0 0 88 88" fill="none" xmlns="http://www.w3.org/2000/svg">
<path d="M44 0L44.0085 43.9567L60.8382 3.34929L44.0245 43.9635L75.1126 12.8873L44.0365 43.9755L84.6507 27.1618L44.0433 43.9915L88 44L44.0433 44.0085L84.6507 60.8382L44.0365 44.0245L75.1126 75.1126L44.0245 44.0365L60.8382 84.6507L44.0085 44.0433L44 88L43.9915 44.0433L27.1618 84.6507L43.9755 44.0365L12.8873 75.1126L43.9635 44.0245L3.34929 60.8382L43.9567 44.0085L0 44L43.9567 43.9915L3.34929 27.1618L43.9635 43.9755L12.8873 12.8873L43.9755 43.9635L27.1618 3.34929L43.9915 43.9567L44 0Z" fill="#262626" stroke="#703DFF" stroke-width="2"/>
</svg>
