<svg width="114" height="114" viewBox="0 0 114 114" fill="none" xmlns="http://www.w3.org/2000/svg">
<path d="M56.7638 0.447266L56.7747 56.6735L78.302 4.73143L56.7951 56.6822L96.5609 16.9318L56.8106 56.6976L108.761 35.1907L56.8192 56.718L113.045 56.7289L56.8192 56.7398L108.761 78.2671L56.8106 56.7602L96.5609 96.5259L56.7951 56.7757L78.302 108.726L56.7747 56.7843L56.7638 113.011L56.7529 56.7843L35.2257 108.726L56.7325 56.7757L16.9667 96.5259L56.7171 56.7602L4.76635 78.2671L56.7085 56.7398L0.482178 56.7289L56.7085 56.718L4.76635 35.1907L56.7171 56.6976L16.9667 16.9318L56.7325 56.6822L35.2257 4.73143L56.7529 56.6735L56.7638 0.447266Z" fill="white" stroke="black" stroke-width="2.55826"/>
</svg>
