<svg width="88" height="89" viewBox="0 0 88 89" fill="none" xmlns="http://www.w3.org/2000/svg">
<path d="M44 0.0415039L44.0085 43.9982L60.8382 3.39079L44.0245 44.005L75.1126 12.9288L44.0365 44.017L84.6507 27.2033L44.0433 44.033L88 44.0415L44.0433 44.05L84.6507 60.8797L44.0365 44.066L75.1126 75.1541L44.0245 44.078L60.8382 84.6922L44.0085 44.0848L44 88.0415L43.9915 44.0848L27.1618 84.6922L43.9755 44.078L12.8873 75.1541L43.9635 44.066L3.34929 60.8797L43.9567 44.05L0 44.0415L43.9567 44.033L3.34929 27.2033L43.9635 44.017L12.8873 12.9288L43.9755 44.005L27.1618 3.39079L43.9915 43.9982L44 0.0415039Z" fill="white" stroke="white" stroke-width="2"/>
</svg>
