<svg width="840" height="257" viewBox="0 0 840 257" fill="none" xmlns="http://www.w3.org/2000/svg">
<path d="M2 2C43.8473 2 43.8473 171.21 85.6945 171.21C127.542 171.21 127.542 2 169.389 2C211.236 2 211.236 171.21 252.986 171.21C294.834 171.21 294.834 2 336.582 2C378.43 2 378.43 171.21 420.178 171.21C462.026 171.21 462.026 2 503.871 2C545.72 2 545.72 171.21 587.568 171.21C629.413 171.21 629.413 2 671.261 2C713.109 2 713.109 171.21 754.957 171.21C796.803 171.21 796.803 2 838.651 2" stroke="black" stroke-width="2.55826" stroke-miterlimit="10" stroke-linecap="round"/>
<path d="M2 86.4578C43.8473 86.4578 43.8473 255.668 85.6945 255.668C127.542 255.668 127.542 86.4578 169.389 86.4578C211.236 86.4578 211.236 255.668 252.986 255.668C294.834 255.668 294.834 86.4578 336.582 86.4578C378.43 86.4578 378.43 255.668 420.178 255.668C462.026 255.668 462.026 86.4578 503.871 86.4578C545.72 86.4578 545.72 255.668 587.568 255.668C629.413 255.668 629.413 86.4578 671.261 86.4578C713.109 86.4578 713.109 255.668 754.957 255.668C796.803 255.668 796.803 86.4578 838.651 86.4578" stroke="black" stroke-width="2.55826" stroke-miterlimit="10" stroke-linecap="round"/>
</svg>
