<svg width="29" height="1146" viewBox="0 0 29 1146" fill="none" xmlns="http://www.w3.org/2000/svg">
<path d="M1 864.94C1.04149 858.51 27.0422 858.678 27.0837 852.248C27.1252 845.818 1.12447 845.65 1.16596 839.22C1.20745 832.789 27.2082 832.957 27.2496 826.542C27.2911 820.112 1.29033 819.944 1.33172 813.529C1.37321 807.098 27.3739 807.266 27.4153 800.851C27.4568 794.421 1.45609 794.253 1.49758 787.823C1.53907 781.393 27.5398 781.561 27.5813 775.13C27.6228 768.7 1.62205 768.533 1.66354 762.102C1.70503 755.672 27.7058 755.84 27.7472 749.409C27.7887 742.979 1.78801 742.812 1.8295 736.381" stroke="white" stroke-width="2" stroke-miterlimit="10" stroke-linecap="round"/>
<path d="M1 638.942C1.04149 632.512 27.0422 632.68 27.0837 626.25C27.1252 619.819 1.12447 619.652 1.16596 613.222C1.20745 606.791 27.2082 606.959 27.2496 600.544C27.2911 594.113 1.29033 593.946 1.33172 587.531C1.37321 581.1 27.3739 581.268 27.4153 574.853C27.4568 568.423 1.45609 568.255 1.49758 561.825C1.53907 555.395 27.5398 555.563 27.5813 549.132C27.6228 542.702 1.62205 542.535 1.66354 536.104C1.70503 529.674 27.7058 529.842 27.7472 523.411C27.7887 516.981 1.78801 516.814 1.8295 510.383" stroke="white" stroke-width="2" stroke-miterlimit="10" stroke-linecap="round"/>
<path d="M11.2606 117.044C19.401 117.077 26.0098 114.646 26.022 111.615C26.0341 108.584 19.4449 106.1 11.3046 106.068C6.74248 106.049 3.03998 107.075 3.03484 108.358C3.0297 109.641 6.72387 110.696 11.2859 110.714C19.4263 110.747 26.0352 108.316 26.0473 105.285C26.0595 102.254 19.4703 99.77 11.3299 99.7374C6.76783 99.7191 3.06533 100.744 3.06019 102.028C3.05505 103.311 6.74922 104.366 11.3113 104.384C19.4517 104.417 26.0606 101.971 26.0728 98.921C26.085 95.8714 19.4959 93.3725 11.3555 93.3399C6.79345 93.3217 3.09095 94.3471 3.08581 95.6302C3.08067 96.9134 6.77484 97.9682 11.3369 97.9865C19.4773 98.0191 26.0862 95.5884 26.0983 92.5573C26.1104 89.5261 19.5213 87.0426 11.3809 87.01C6.8188 86.9917 3.1163 88.0169 3.11117 89.3001C3.10603 90.5832 6.80019 91.6382 11.3623 91.6565C19.5027 91.6891 26.1115 89.2582 26.1237 86.2271C26.1358 83.1959 19.5466 80.7124 11.4062 80.6798C6.84415 80.6615 3.14166 81.6869 3.13652 82.9699C3.13138 84.253 6.82554 85.3081 11.3876 85.3263C19.528 85.3589 26.1369 82.9281 26.149 79.8971C26.1611 76.866 19.572 74.3822 11.4316 74.3496C6.8695 74.3314 3.16701 75.3568 3.16187 76.6399C3.15673 77.9229 6.8509 78.9779 11.413 78.9962C19.5534 79.0288 26.1623 76.583 26.1745 73.5333C26.1867 70.4836 19.5976 67.9848 11.4572 67.9522" stroke="white" stroke-width="2" stroke-linecap="round"/>
<path d="M11.2606 358.042C19.401 358.075 26.0098 355.644 26.022 352.613C26.0341 349.582 19.4449 347.098 11.3046 347.066C6.74248 347.047 3.03998 348.073 3.03484 349.356C3.0297 350.639 6.72387 351.694 11.2859 351.712C19.4263 351.745 26.0352 349.314 26.0473 346.283C26.0595 343.252 19.4703 340.768 11.3299 340.735C6.76783 340.717 3.06533 341.743 3.06019 343.026C3.05505 344.309 6.74922 345.364 11.3113 345.382C19.4517 345.415 26.0606 342.969 26.0728 339.919C26.085 336.869 19.4959 334.371 11.3555 334.338C6.79345 334.32 3.09095 335.345 3.08581 336.628C3.08067 337.911 6.77484 338.966 11.3369 338.985C19.4773 339.017 26.0862 336.586 26.0983 333.555C26.1104 330.524 19.5213 328.041 11.3809 328.008C6.8188 327.99 3.1163 329.015 3.11117 330.298C3.10603 331.581 6.80019 332.636 11.3623 332.655C19.5027 332.687 26.1115 330.256 26.1237 327.225C26.1358 324.194 19.5466 321.71 11.4062 321.678C6.84415 321.66 3.14166 322.685 3.13652 323.968C3.13138 325.251 6.82554 326.306 11.3876 326.324C19.528 326.357 26.1369 323.926 26.149 320.895C26.1611 317.864 19.572 315.38 11.4316 315.348C6.8695 315.329 3.16701 316.355 3.16187 317.638C3.15673 318.921 6.8509 319.976 11.413 319.994C19.5534 320.027 26.1623 317.581 26.1745 314.531C26.1867 311.482 19.5976 308.983 11.4572 308.95" stroke="white" stroke-width="2" stroke-linecap="round"/>
<path d="M14.5001 413.063L14.5515 399.576L9.33801 412.015L14.5466 399.574L4.9701 409.071L14.5429 399.57L2.06122 404.679L14.5409 399.566L1.05428 399.509L14.5409 399.56L2.1026 394.347L14.543 399.555L5.04657 389.979L14.5467 399.552L9.43791 387.07L14.5516 399.55L14.6082 386.063L14.5568 399.55L19.7703 387.111L14.5617 399.552L24.1383 390.055L14.5654 399.556L27.0471 394.447L14.5675 399.56L28.0541 399.617L14.5674 399.566L27.0058 404.779L14.5654 399.571L24.0618 409.147L14.5616 399.574L19.6704 412.056L14.5567 399.576L14.5001 413.063Z" fill="white" stroke="white" stroke-width="2"/>
<path d="M14.5001 699.061L14.5515 685.574L9.33801 698.012L14.5466 685.572L4.9701 695.068L14.5429 685.568L2.06122 690.677L14.5409 685.563L1.05428 685.507L14.5409 685.558L2.1026 680.345L14.543 685.553L5.04657 675.977L14.5467 685.55L9.43791 673.068L14.5516 685.547L14.6082 672.061L14.5568 685.548L19.7703 673.109L14.5617 685.55L24.1383 676.053L14.5654 685.553L27.0471 680.445L14.5675 685.558L28.0541 685.615L14.5674 685.563L27.0058 690.777L14.5654 685.568L24.0618 695.145L14.5616 685.572L19.6704 698.054L14.5567 685.574L14.5001 699.061Z" fill="white" stroke="white" stroke-width="2"/>
<path d="M14.5001 925.059L14.5515 911.572L9.33801 924.011L14.5466 911.57L4.9701 921.067L14.5429 911.567L2.06122 916.675L14.5409 911.562L1.05428 911.505L14.5409 911.556L2.1026 906.343L14.543 911.552L5.04657 901.975L14.5467 911.548L9.43791 899.066L14.5516 911.546L14.6082 898.059L14.5568 911.546L19.7703 899.108L14.5617 911.548L24.1383 902.051L14.5654 911.552L27.0471 906.443L14.5675 911.557L28.0541 911.613L14.5674 911.562L27.0058 916.775L14.5654 911.567L24.0618 921.143L14.5616 911.57L19.6704 924.052L14.5567 911.572L14.5001 925.059Z" fill="white" stroke="white" stroke-width="2"/>
<path d="M14.5001 1067.05L14.5515 1053.57L9.33801 1066.01L14.5466 1053.57L4.9701 1063.06L14.5429 1053.56L2.06122 1058.67L14.5409 1053.56L1.05428 1053.5L14.5409 1053.55L2.1026 1048.34L14.543 1053.55L5.04657 1043.97L14.5467 1053.54L9.43791 1041.06L14.5516 1053.54L14.6082 1040.05L14.5568 1053.54L19.7703 1041.1L14.5617 1053.54L24.1383 1044.05L14.5654 1053.55L27.0471 1048.44L14.5675 1053.55L28.0541 1053.61L14.5674 1053.56L27.0058 1058.77L14.5654 1053.56L24.0618 1063.14L14.5616 1053.57L19.6704 1066.05L14.5567 1053.57L14.5001 1067.05Z" fill="white" stroke="white" stroke-width="2"/>
<path d="M14.5001 276.048L14.5515 262.562L9.33801 275L14.5466 262.56L4.9701 272.056L14.5429 262.556L2.06122 267.665L14.5409 262.551L1.05428 262.495L14.5409 262.546L2.1026 257.332L14.543 262.541L5.04657 252.965L14.5467 262.537L9.43791 250.056L14.5516 262.535L14.6082 249.049L14.5568 262.535L19.7703 250.097L14.5617 262.537L24.1383 253.041L14.5654 262.541L27.0471 257.432L14.5675 262.546L28.0541 262.603L14.5674 262.551L27.0058 267.765L14.5654 262.556L24.0618 272.133L14.5616 262.56L19.6704 275.042L14.5567 262.562L14.5001 276.048Z" fill="white" stroke="white" stroke-width="2"/>
<path d="M12.2606 1144.13C20.401 1144.16 27.0098 1141.73 27.022 1138.7C27.0341 1135.66 20.4449 1133.18 12.3046 1133.15C7.74248 1133.13 4.03998 1134.16 4.03484 1135.44C4.0297 1136.72 7.72387 1137.78 12.2859 1137.8C20.4263 1137.83 27.0352 1135.4 27.0473 1132.37C27.0595 1129.33 20.4703 1126.85 12.3299 1126.82C7.76783 1126.8 4.06533 1127.83 4.06019 1129.11C4.05505 1130.39 7.74922 1131.45 12.3113 1131.46C20.4517 1131.5 27.0606 1129.05 27.0728 1126C27.085 1122.95 20.4959 1120.45 12.3555 1120.42C7.79345 1120.4 4.09095 1121.43 4.08581 1122.71C4.08067 1123.99 7.77484 1125.05 12.3369 1125.07C20.4773 1125.1 27.0862 1122.67 27.0983 1119.64C27.1104 1116.61 20.5213 1114.12 12.3809 1114.09C7.8188 1114.07 4.1163 1115.1 4.11117 1116.38C4.10603 1117.66 7.80019 1118.72 12.3623 1118.74C20.5027 1118.77 27.1115 1116.34 27.1237 1113.31C27.1358 1110.28 20.5466 1107.79 12.4062 1107.76C7.84415 1107.74 4.14166 1108.77 4.13652 1110.05C4.13138 1111.33 7.82554 1112.39 12.3876 1112.41C20.528 1112.44 27.1369 1110.01 27.149 1106.98C27.1611 1103.95 20.572 1101.46 12.4316 1101.43C7.8695 1101.41 4.16701 1102.44 4.16187 1103.72C4.15673 1105 7.8509 1106.06 12.413 1106.08C20.5534 1106.11 27.1623 1103.66 27.1745 1100.61C27.1867 1097.56 20.5976 1095.07 12.4572 1095.03" stroke="white" stroke-width="2" stroke-linecap="round"/>
<path d="M14.5001 27.0538L14.5515 13.5672L9.33801 26.0055L14.5466 13.5651L4.9701 23.0616L14.5429 13.5614L2.06122 18.6702L14.5409 13.5565L1.05428 13.4999L14.5409 13.5513L2.1026 8.33779L14.543 13.5464L5.04657 3.96988L14.5467 13.5427L9.43791 1.06099L14.5516 13.5407L14.6082 0.0540593L14.5568 13.5407L19.7703 1.10237L14.5617 13.5428L24.1383 4.04634L14.5654 13.5465L27.0471 8.43769L14.5675 13.5514L28.0541 13.608L14.5674 13.5566L27.0058 18.7701L14.5654 13.5615L24.0618 23.138L14.5616 13.5652L19.6704 26.0469L14.5567 13.5672L14.5001 27.0538Z" fill="white" stroke="white" stroke-width="2"/>
</svg>
