<svg width="744" height="153" viewBox="0 0 744 153" fill="none" xmlns="http://www.w3.org/2000/svg">
<path d="M1.89062 1.78906C38.9344 1.78906 38.9344 151.576 75.9782 151.576C113.022 151.576 113.022 1.78906 150.066 1.78906C187.11 1.78906 187.11 151.576 224.067 151.576C261.112 151.576 261.112 1.78906 298.067 1.78906C335.112 1.78906 335.112 151.576 372.068 151.576C409.113 151.576 409.113 1.78906 446.154 1.78906C483.199 1.78906 483.199 151.576 520.244 151.576C557.286 151.576 557.286 1.78906 594.33 1.78906C631.375 1.78906 631.375 151.576 668.419 151.576C705.461 151.576 705.461 1.78906 742.506 1.78906" stroke="black" stroke-width="2.55826" stroke-miterlimit="10" stroke-linecap="round"/>
</svg>
