<svg width="657" height="135" viewBox="0 0 657 135" fill="none" xmlns="http://www.w3.org/2000/svg">
<path d="M1 1.0415C33.7155 1.0415 33.7155 133.327 66.4309 133.327C99.1464 133.327 99.1464 1.0415 131.862 1.0415C164.577 1.0415 164.577 133.327 197.216 133.327C229.932 133.327 229.932 1.0415 262.57 1.0415C295.286 1.0415 295.286 133.327 327.924 133.327C360.64 133.327 360.64 1.0415 393.354 1.0415C426.07 1.0415 426.07 133.327 458.787 133.327C491.5 133.327 491.5 1.0415 524.217 1.0415C556.933 1.0415 556.933 133.327 589.649 133.327C622.363 133.327 622.363 1.0415 655.079 1.0415" stroke="#E85B11" stroke-width="2" stroke-miterlimit="10" stroke-linecap="round"/>
</svg>
